<?xml version="1.0" encoding="UTF-8"?>
<svg version="1.1" xmlns="http://www.w3.org/2000/svg" width="76" height="51">
<path d="M0 0 C25.08 0 50.16 0 76 0 C76 16.83 76 33.66 76 51 C50.92 51 25.84 51 0 51 C0 34.17 0 17.34 0 0 Z " fill="#141724" transform="translate(0,0)"/>
<path d="M0 0 C3.96 0 7.92 0 12 0 C12.66 1.65 13.32 3.3 14 5 C15.11375 5.12375 16.2275 5.2475 17.375 5.375 C21 6 21 6 23 8 C23.44626783 11.12546156 23.32410302 14.2837984 23.3125 17.4375 C23.32861328 18.30955078 23.34472656 19.18160156 23.36132812 20.08007812 C23.36197266 20.91861328 23.36261719 21.75714844 23.36328125 22.62109375 C23.36626221 23.3886499 23.36924316 24.15620605 23.37231445 24.94702148 C23 27 23 27 21.87182617 28.7487793 C19.13544614 30.57791033 16.95698558 30.38871791 13.6875 30.3984375 C12.44742188 30.40230469 11.20734375 30.40617187 9.9296875 30.41015625 C7.98449219 30.39275391 7.98449219 30.39275391 6 30.375 C4.70320313 30.38660156 3.40640625 30.39820312 2.0703125 30.41015625 C0.83023438 30.40628906 -0.40984375 30.40242188 -1.6875 30.3984375 C-2.82574219 30.39505371 -3.96398438 30.39166992 -5.13671875 30.38818359 C-8 30 -8 30 -9.87182617 28.7487793 C-11.28640797 26.55603976 -11.37337926 25.22119546 -11.36328125 22.62109375 C-11.36263672 21.78255859 -11.36199219 20.94402344 -11.36132812 20.08007812 C-11.34521484 19.20802734 -11.32910156 18.33597656 -11.3125 17.4375 C-11.31572266 16.56158203 -11.31894531 15.68566406 -11.32226562 14.78320312 C-11.26708681 8.26708681 -11.26708681 8.26708681 -9 6 C-6.67724823 5.59952556 -4.34260643 5.2602896 -2 5 C-1.34 3.35 -0.68 1.7 0 0 Z " fill="#5053C1" transform="translate(39,7)"/>
<path d="M0 0 C2.64 0 5.28 0 8 0 C8 5.61 8 11.22 8 17 C5.36 17 2.72 17 0 17 C0 11.39 0 5.78 0 0 Z " fill="#141723" transform="translate(41,16)"/>
<path d="M0 0 C1.65 0 3.3 0 5 0 C5 5.61 5 11.22 5 17 C3.35 17 1.7 17 0 17 C0 11.39 0 5.78 0 0 Z " fill="#141724" transform="translate(53,16)"/>
<path d="M0 0 C1.65 0 3.3 0 5 0 C5 5.61 5 11.22 5 17 C3.35 17 1.7 17 0 17 C0 11.39 0 5.78 0 0 Z " fill="#141723" transform="translate(32,16)"/>
</svg>
